<svg viewBox="0 0 64 64" xmlns="http://www.w3.org/2000/svg"><g id="Layer_8" data-name="Layer 8"><path d="m61 14h-39v-1a3 3 0 0 0 -6 0v1h-2v-1a3 3 0 0 0 -3-3h-4a3 3 0 0 0 -3 3v1h-1a3 3 0 0 0 -3 3v34a3 3 0 0 0 3 3h58a3 3 0 0 0 3-3v-34a3 3 0 0 0 -3-3zm-43-1a1 1 0 0 1 2 0v1h-2zm43 39h-58a1 1 0 0 1 -1-1v-23h15a1 1 0 0 0 0-2h-15v-9a1 1 0 0 1 1-1h6a1 1 0 0 0 0-2h-3v-1a1 1 0 0 1 1-1h4a1 1 0 0 1 1 1v2a1 1 0 0 0 1 1h48a1 1 0 0 1 1 1v9h-19.774a12.954 12.954 0 1 0 1.3 2h18.474v23a1 1 0 0 1 -1 1zm-18-18a11 11 0 1 1 -11-11 11.013 11.013 0 0 1 11 11z"/><path d="m53 24h4a3 3 0 0 0 0-6h-4a3 3 0 0 0 0 6zm0-4h4a1 1 0 0 1 0 2h-4a1 1 0 0 1 0-2z"/><path d="m16 41a3 3 0 1 0 3 3 3 3 0 0 0 -3-3zm0 4a1 1 0 1 1 1-1 1 1 0 0 1 -1 1z"/><path d="m38.429 29.134a1 1 0 0 0 -.365 1.366 7 7 0 1 1 -2.564-2.564 1 1 0 1 0 1-1.731 9 9 0 1 0 3.3 3.3 1 1 0 0 0 -1.371-.371z"/></g></svg>