<!-- icon666.com - MILLIONS vector ICONS FREE --><svg id="bold" enable-background="new 0 0 24 24" viewBox="0 0 24 24" xmlns="http://www.w3.org/2000/svg"><path d="m3.6 4.6c0-1 1.517-3.6 4.4-3.6 2.867 0 4.41 2.6 4.41 3.6-.01 0-.03.01-.04.01-1.68.45-2.77-1.38-2.81-1.46-.178-.288-.551-.319-.78-.11-2.12 1.97-4.95 1.59-5.18 1.56z" fill="#000000" style="fill: rgb(203, 158, 97);"></path><path d="m9.03 4.14c-2.28 1.79-4.97 1.53-5.52 1.46-.122 1.823 1.641 4.4 4.49 4.4 2.861 0 4.619-2.595 4.49-4.4-1.325.346-2.591-.374-3.46-1.46z" fill="#000000" style="fill: rgb(203, 158, 97);"></path><path d="m20.253 12c-1.062 0-2.051.445-2.747 1.193-.695-.747-1.684-1.193-2.746-1.193-2.066 0-3.747 1.677-3.747 3.738 0 3.513 5.427 7.653 6.046 8.113.265.197.63.198.896 0 .618-.46 6.045-4.6 6.045-8.113 0-2.061-1.681-3.738-3.747-3.738z" fill="#000000" style="fill: rgb(203, 158, 97);"></path><path d="m11.096 12h-7.346c-2.068 0-3.75 1.682-3.75 3.75v3.5c0 .414.336.75.75.75h10.349c-1.921-2.787-2.302-5.754-.003-8z" fill="#000000" style="fill: rgb(203, 158, 97);"></path></svg>