<!-- icon666.com - MILLIONS vector ICONS FREE --><svg enable-background="new 0 0 450 450" viewBox="0 0 450 450" xmlns="http://www.w3.org/2000/svg"><g id="Layer_9_x2C__Stopwatch_x2C__time_x2C__timer"><g><path d="m225 40c-102.009 0-185 82.991-185 185 0 102.01 82.991 185 185 185 102.01 0 185-82.99 185-185 0-102.009-82.99-185-185-185zm-140 190h-20c-2.761 0-5-2.238-5-5 0-2.761 2.239-5 5-5h20c2.761 0 5 2.239 5 5 0 2.762-2.239 5-5 5zm135-165c0-2.761 2.239-5 5-5 2.762 0 5 2.239 5 5v20c0 2.761-2.238 5-5 5-2.761 0-5-2.239-5-5zm-90.459 262.53-14.142 14.142c-.977.977-2.256 1.465-3.536 1.465s-2.559-.488-3.536-1.465c-1.953-1.952-1.953-5.118 0-7.07l14.142-14.142c1.954-1.952 5.119-1.952 7.071 0s1.953 5.118.001 7.07zm0-197.989c-.977.976-2.256 1.464-3.536 1.464s-2.559-.488-3.536-1.464l-14.142-14.142c-1.953-1.953-1.953-5.119 0-7.071s5.118-1.952 7.071 0l14.142 14.142c1.953 1.952 1.953 5.118.001 7.071zm100.459 255.459c0 2.762-2.238 5-5 5-2.761 0-5-2.238-5-5v-20c0-2.762 2.239-5 5-5 2.762 0 5 2.238 5 5zm59.16-107.227c-.963 1.445-2.549 2.227-4.165 2.228-.953 0-1.916-.272-2.769-.841l-60-40c-1.391-.927-2.227-2.488-2.227-4.16v-80c0-2.761 2.239-5 5-5 2.762 0 5 2.239 5 5v77.324l57.773 38.516c2.299 1.531 2.92 4.636 1.388 6.933zm52.512 63.899c-.976.977-2.256 1.465-3.535 1.465s-2.56-.488-3.535-1.465l-14.142-14.142c-1.953-1.952-1.953-5.118 0-7.07 1.951-1.953 5.119-1.953 7.07 0l14.142 14.142c1.953 1.952 1.953 5.118 0 7.07zm0-226.274-14.142 14.142c-.976.976-2.256 1.464-3.535 1.464s-2.56-.488-3.535-1.464c-1.953-1.953-1.953-5.119 0-7.071l14.142-14.142c1.951-1.952 5.119-1.952 7.07 0 1.953 1.953 1.953 5.119 0 7.071zm43.328 114.602h-20c-2.762 0-5-2.238-5-5 0-2.761 2.238-5 5-5h20c2.762 0 5 2.239 5 5 0 2.762-2.238 5-5 5z" fill="#000000" style="fill: rgb(203, 158, 97);"></path><path d="m225 0c-124.065 0-225 100.935-225 225s100.935 225 225 225 225-100.935 225-225-100.935-225-225-225zm0 420c-107.523 0-195-87.477-195-195s87.477-195 195-195 195 87.477 195 195-87.477 195-195 195z" fill="#000000" style="fill: rgb(203, 158, 97);"></path></g></g></svg>