<svg viewBox="0 0 64 64" xmlns="http://www.w3.org/2000/svg"><g data-name="Layer 8"><path d="M61 14H22v-1a3 3 0 00-6 0v1h-2v-1a3 3 0 00-3-3H7a3 3 0 00-3 3v1H3a3 3 0 00-3 3v34a3 3 0 003 3h58a3 3 0 003-3V17a3 3 0 00-3-3zm-43-1a1 1 0 012 0v1h-2zm43 39H3a1 1 0 01-1-1V28h15a1 1 0 000-2H2v-9a1 1 0 011-1h6a1 1 0 000-2H6v-1a1 1 0 011-1h4a1 1 0 011 1v2a1 1 0 001 1h48a1 1 0 011 1v9H42.226a12.954 12.954 0 101.3 2H62v23a1 1 0 01-1 1zM43 34a11 11 0 11-11-11 11.013 11.013 0 0111 11z"/><path d="M53 24h4a3 3 0 000-6h-4a3 3 0 000 6zm0-4h4a1 1 0 010 2h-4a1 1 0 010-2zM16 41a3 3 0 103 3 3 3 0 00-3-3zm0 4a1 1 0 111-1 1 1 0 01-1 1zm22.429-15.866a1 1 0 00-.365 1.366 7 7 0 11-2.564-2.564 1 1 0 101-1.731 9 9 0 103.3 3.3 1 1 0 00-1.371-.371z"/></g></svg>