<svg viewBox="0 0 24 24" xmlns="http://www.w3.org/2000/svg"><path d="M3.6 4.6C3.6 3.6 5.117 1 8 1c2.867 0 4.41 2.6 4.41 3.6-.01 0-.03.01-.04.01-1.68.45-2.77-1.38-2.81-1.46a.508.508 0 00-.78-.11C6.66 5.01 3.83 4.63 3.6 4.6z" fill="#cb9e61"/><path d="M9.03 4.14C6.75 5.93 4.06 5.67 3.51 5.6 3.388 7.423 5.151 10 8 10c2.861 0 4.619-2.595 4.49-4.4-1.325.346-2.591-.374-3.46-1.46zM20.253 12a3.75 3.75 0 00-2.747 1.193A3.75 3.75 0 0014.76 12a3.747 3.747 0 00-3.747 3.738c0 3.513 5.427 7.653 6.046 8.113.265.197.63.198.896 0 .618-.46 6.045-4.6 6.045-8.113A3.747 3.747 0 0020.253 12z" fill="#cb9e61"/><path d="M11.096 12H3.75A3.754 3.754 0 000 15.75v3.5c0 .414.336.75.75.75h10.349c-1.921-2.787-2.302-5.754-.003-8z" fill="#cb9e61"/></svg>