<svg viewBox="0 0 450 450" xmlns="http://www.w3.org/2000/svg"><g fill="#cb9e61"><path d="M225 40C122.991 40 40 122.991 40 225c0 102.01 82.991 185 185 185 102.01 0 185-82.99 185-185 0-102.009-82.99-185-185-185zM85 230H65a5 5 0 110-10h20a5 5 0 010 10zM220 65a5 5 0 0110 0v20a5 5 0 11-10 0zm-90.459 262.53l-14.142 14.142c-.977.977-2.256 1.465-3.536 1.465s-2.559-.488-3.536-1.465a4.998 4.998 0 010-7.07l14.142-14.142a5.001 5.001 0 017.072 7.07zm0-197.989c-.977.976-2.256 1.464-3.536 1.464s-2.559-.488-3.536-1.464l-14.142-14.142a5 5 0 117.071-7.071l14.142 14.142a5 5 0 01.001 7.071zM230 385a5 5 0 11-10 0v-20a5 5 0 1110 0zm59.16-107.227a4.999 4.999 0 01-6.934 1.387l-60-40a5 5 0 01-2.227-4.16v-80a5 5 0 0110 0v77.324l57.773 38.516a4.998 4.998 0 011.388 6.933zm52.512 63.899c-.976.977-2.256 1.465-3.535 1.465s-2.56-.488-3.535-1.465L320.46 327.53a4.998 4.998 0 010-7.07 4.998 4.998 0 017.07 0l14.142 14.142a4.998 4.998 0 010 7.07zm0-226.274L327.53 129.54c-.976.976-2.256 1.464-3.535 1.464s-2.56-.488-3.535-1.464a5 5 0 010-7.071l14.142-14.142a5 5 0 017.07 7.071zM385 230h-20a5 5 0 110-10h20a5 5 0 110 10z"/><path d="M225 0C100.935 0 0 100.935 0 225s100.935 225 225 225 225-100.935 225-225S349.065 0 225 0zm0 420c-107.523 0-195-87.477-195-195S117.477 30 225 30s195 87.477 195 195-87.477 195-195 195z"/></g></svg>